<svg width="26" height="29" viewBox="0 0 26 29" fill="none" xmlns="http://www.w3.org/2000/svg">
<g id="Iconly/Bold/Bag">
<g id="Bag">
<path id="Combined-Shape" d="M12.5915 0.48526C16.3297 0.48526 19.403 3.42273 19.559 7.14483H19.5225C19.5269 7.25302 19.5061 7.36076 19.4618 7.45962H19.6796C21.3771 7.45962 23.1547 8.63621 23.8675 11.4766L23.9449 11.8117L25.0175 20.4525C25.7893 25.9636 22.7741 28.2813 18.661 28.3794L18.3851 28.3827H6.82174C2.64165 28.3827 -0.579433 26.8595 0.128794 20.8274L0.17709 20.4525L1.26193 11.8117C1.79687 8.75292 3.59272 7.54645 5.32307 7.46417L5.515 7.45962H5.62404C5.60565 7.35549 5.60565 7.24896 5.62404 7.14483C5.78004 3.42273 8.85332 0.48526 12.5915 0.48526ZM8.53529 12.1036C7.85445 12.1036 7.30252 12.6716 7.30252 13.3724C7.30252 14.0731 7.85445 14.6412 8.53529 14.6412C9.21613 14.6412 9.76806 14.0731 9.76806 13.3724L9.75846 13.2132C9.68239 12.5876 9.16376 12.1036 8.53529 12.1036ZM16.61 12.1036C15.9291 12.1036 15.3772 12.6716 15.3772 13.3724C15.3772 14.0731 15.9291 14.6412 16.61 14.6412C17.2908 14.6412 17.8427 14.0731 17.8427 13.3724C17.8427 12.6716 17.2908 12.1036 16.61 12.1036ZM12.5368 2.30192C9.85295 2.30192 7.67722 4.47016 7.67722 7.14483C7.69561 7.24896 7.69561 7.35549 7.67722 7.45962H17.4572C17.4184 7.35911 17.3978 7.25252 17.3964 7.14483C17.3964 4.47016 15.2207 2.30192 12.5368 2.30192Z" fill="white"/>
</g>
</g>
</svg>
