<svg width="29" height="29" viewBox="0 0 29 29" fill="none" xmlns="http://www.w3.org/2000/svg">
<g id="Iconly/Bold/Category">
<g id="Category">
<path id="Vector" d="M8.89338 16.5302C10.8602 16.5302 12.4364 18.1217 12.4364 20.1024V24.8575C12.4364 26.8243 10.8602 28.4284 8.89338 28.4284H4.17872C2.2259 28.4284 0.635742 26.8243 0.635742 24.8575V20.1024C0.635742 18.1217 2.2259 16.5302 4.17872 16.5302H8.89338ZM24.9903 16.5302C26.9432 16.5302 28.5333 18.1217 28.5333 20.1024V24.8575C28.5333 26.8243 26.9432 28.4284 24.9903 28.4284H20.2757C18.3089 28.4284 16.7327 26.8243 16.7327 24.8575V20.1024C16.7327 18.1217 18.3089 16.5302 20.2757 16.5302H24.9903ZM8.89338 0.531403C10.8602 0.531403 12.4364 2.13551 12.4364 4.10367V8.85879C12.4364 10.8395 10.8602 12.4297 8.89338 12.4297H4.17872C2.2259 12.4297 0.635742 10.8395 0.635742 8.85879V4.10367C0.635742 2.13551 2.2259 0.531403 4.17872 0.531403H8.89338ZM24.9903 0.531403C26.9432 0.531403 28.5333 2.13551 28.5333 4.10367V8.85879C28.5333 10.8395 26.9432 12.4297 24.9903 12.4297H20.2757C18.3089 12.4297 16.7327 10.8395 16.7327 8.85879V4.10367C16.7327 2.13551 18.3089 0.531403 20.2757 0.531403H24.9903Z" fill="white"/>
</g>
</g>
</svg>
