<svg width="29" height="29" viewBox="0 0 29 29" fill="none" xmlns="http://www.w3.org/2000/svg">
<g id="Iconly/Bold/Chat">
<g id="Chat">
<path id="Vector" d="M14.6126 0.577576C22.5355 0.577576 28.5334 7.07347 28.5334 14.5053C28.5334 23.1246 21.5033 28.475 14.5847 28.475C12.2971 28.475 9.75845 27.8603 7.72194 26.659C7.01055 26.2259 6.41076 25.9046 5.64358 26.156L2.82594 26.9942C2.11455 27.2177 1.47291 26.659 1.68214 25.9046L2.6167 22.7754C2.77014 22.3423 2.74224 21.8813 2.51906 21.5181C1.31947 19.3109 0.635986 16.8942 0.635986 14.5472C0.635986 7.1992 6.5084 0.577576 14.6126 0.577576ZM20.9872 12.7731C19.9968 12.7731 19.2017 13.5694 19.2017 14.5612C19.2017 15.5391 19.9968 16.3493 20.9872 16.3493C21.9775 16.3493 22.7726 15.5391 22.7726 14.5612C22.7726 13.5694 21.9775 12.7731 20.9872 12.7731ZM14.5568 12.7731C13.5804 12.7591 12.7714 13.5694 12.7714 14.5472C12.7714 15.5391 13.5664 16.3354 14.5568 16.3493C15.5472 16.3493 16.3422 15.5391 16.3422 14.5612C16.3422 13.5694 15.5472 12.7731 14.5568 12.7731ZM8.12645 12.7731C7.13609 12.7731 6.34101 13.5694 6.34101 14.5612C6.34101 15.5391 7.15004 16.3493 8.12645 16.3493C9.11681 16.3354 9.91188 15.5391 9.91188 14.5612C9.91188 13.5694 9.11681 12.7731 8.12645 12.7731Z" fill="white"/>
</g>
</g>
</svg>
