<svg width="26" height="29" viewBox="0 0 26 29" fill="none" xmlns="http://www.w3.org/2000/svg">
<g id="Iconly/Bold/Document">
<g id="Document">
<path id="Vector" d="M18.4305 0.623779C22.7393 0.623779 25.1385 3.10665 25.1385 7.36101V21.77C25.1385 26.0941 22.7393 28.5212 18.4305 28.5212H6.74009C2.49968 28.5212 0.0307617 26.0941 0.0307617 21.77V7.36101C0.0307617 3.10665 2.49968 0.623779 6.74009 0.623779H18.4305ZM7.11671 19.7893C6.69825 19.7475 6.29374 19.9428 6.07056 20.3054C5.84738 20.6541 5.84738 21.1144 6.07056 21.4771C6.29374 21.8258 6.69825 22.0351 7.11671 21.9793H18.0525C18.6091 21.9235 19.0289 21.4478 19.0289 20.8913C19.0289 20.3194 18.6091 19.8451 18.0525 19.7893H7.11671ZM18.0525 13.4273H7.11671C6.51552 13.4273 6.02871 13.9169 6.02871 14.5167C6.02871 15.1165 6.51552 15.6047 7.11671 15.6047H18.0525C18.6523 15.6047 19.1405 15.1165 19.1405 14.5167C19.1405 13.9169 18.6523 13.4273 18.0525 13.4273ZM11.286 7.10993H7.11671V7.12388C6.51552 7.12388 6.02871 7.61209 6.02871 8.21188C6.02871 8.81168 6.51552 9.29988 7.11671 9.29988H11.286C11.8872 9.29988 12.3754 8.81168 12.3754 8.19654C12.3754 7.59814 11.8872 7.10993 11.286 7.10993Z" fill="white"/>
</g>
</g>
</svg>
