<svg width="29" height="29" viewBox="0 0 29 29" fill="none" xmlns="http://www.w3.org/2000/svg">
<g id="Iconly/Bold/Edit-Square">
<g id="Edit-Square">
<path id="Vector" d="M21.0922 0.730481C23.0987 0.605072 25.0774 1.30179 26.5684 2.66735C27.934 4.15832 28.6307 6.13699 28.5192 8.15746V21.1721C28.6446 23.1926 27.934 25.1712 26.5823 26.6622C25.0914 28.0278 23.0987 28.7245 21.0922 28.5991H8.07745C6.05696 28.7245 4.07827 28.0278 2.58729 26.6622C1.22171 25.1712 0.524993 23.1926 0.650403 21.1721V8.15746C0.524993 6.13699 1.22171 4.15832 2.58729 2.66735C4.07827 1.30179 6.05696 0.605072 8.07745 0.730481H21.0922ZM20.7299 7.09846C19.866 6.23453 18.4725 6.23453 17.6086 7.09846L16.675 8.04599C16.5356 8.18533 16.5356 8.42222 16.675 8.56156C16.675 8.56156 16.7023 8.58874 16.751 8.63714L17.0938 8.97801C17.292 9.17527 17.5395 9.42161 17.788 9.66934L18.6306 10.5116C18.8064 10.6882 18.9231 10.8065 18.9324 10.8189C19.0856 10.9861 19.1832 11.2091 19.1832 11.4599C19.1832 11.9615 18.7791 12.3796 18.2635 12.3796C18.0266 12.3796 17.8037 12.282 17.6504 12.1287L15.3233 9.81565C15.2119 9.70417 15.0168 9.70417 14.9053 9.81565L8.25859 16.4623C7.79876 16.9221 7.534 17.5352 7.52007 18.1902L7.43646 21.4926C7.43646 21.6737 7.4922 21.8409 7.61761 21.9664C7.74302 22.0918 7.91023 22.1614 8.09138 22.1614H11.366C12.0348 22.1614 12.6758 21.8967 13.1635 21.4229L22.5414 12.0173C23.3914 11.1533 23.3914 9.75991 22.5414 8.90992L20.7299 7.09846Z" fill="white"/>
</g>
</g>
</svg>
