<svg width="29" height="26" viewBox="0 0 29 26" fill="none" xmlns="http://www.w3.org/2000/svg">
<g id="Iconly/Bold/Filter">
<g id="Filter">
<path id="Vector" d="M23.7366 16.1588C26.3869 16.1588 28.5334 18.2692 28.5334 20.8729C28.5334 23.4752 26.3869 25.5856 23.7366 25.5856C21.0879 25.5856 18.9399 23.4752 18.9399 20.8729C18.9399 18.2692 21.0879 16.1588 23.7366 16.1588ZM11.9111 18.8626C13.072 18.8626 14.0143 19.7883 14.0143 20.9288C14.0143 22.0678 13.072 22.9951 11.9111 22.9951H2.73913C1.57829 22.9951 0.635986 22.0678 0.635986 20.9288C0.635986 19.7883 1.57829 18.8626 2.73913 18.8626H11.9111ZM5.43277 0.787872C8.08301 0.787872 10.2296 2.89829 10.2296 5.50053C10.2296 8.10429 8.08301 10.2147 5.43277 10.2147C2.78408 10.2147 0.635986 8.10429 0.635986 5.50053C0.635986 2.89829 2.78408 0.787872 5.43277 0.787872ZM26.4318 3.43579C27.5911 3.43579 28.5334 4.36157 28.5334 5.50053C28.5334 6.64101 27.5911 7.56679 26.4318 7.56679H17.2598C16.099 7.56679 15.1567 6.64101 15.1567 5.50053C15.1567 4.36157 16.099 3.43579 17.2598 3.43579H26.4318Z" fill="white"/>
</g>
</g>
</svg>
