<svg width="27" height="29" viewBox="0 0 27 29" fill="none" xmlns="http://www.w3.org/2000/svg">
<g id="Iconly/Bold/Home">
<g id="Home">
<path id="Vector" d="M9.58792 26.9486V22.6835C9.58792 21.5947 10.477 20.7121 11.5737 20.7121H15.5828C16.1095 20.7121 16.6146 20.9198 16.987 21.2895C17.3594 21.6592 17.5687 22.1606 17.5687 22.6835V26.9486C17.5653 27.4013 17.7441 27.8365 18.0654 28.1577C18.3866 28.479 18.8237 28.6596 19.2797 28.6596H22.0149C23.2923 28.6629 24.5186 28.1615 25.423 27.2659C26.3275 26.3703 26.8358 25.1543 26.8358 23.8861V11.7355C26.8358 10.7111 26.3784 9.73938 25.5869 9.08216L16.2822 1.70496C14.6637 0.411483 12.3446 0.453246 10.7744 1.80415L1.68211 9.08216C0.853177 9.72001 0.357735 10.6946 0.333252 11.7355V23.8737C0.333252 26.5169 2.49165 28.6596 5.15417 28.6596H7.82691C8.77394 28.6596 9.54359 27.9011 9.55045 26.961L9.58792 26.9486Z" fill="white"/>
</g>
</g>
</svg>
