<svg width="29" height="29" viewBox="0 0 29 29" fill="none" xmlns="http://www.w3.org/2000/svg">
<g id="Iconly/Bold/Image">
<g id="Image">
<path id="Vector" d="M20.6298 0.669922C25.3574 0.669922 28.5334 3.98708 28.5334 8.92299V20.3143C28.5334 25.2502 25.3574 28.5674 20.6284 28.5674H8.53958C3.81196 28.5674 0.635986 25.2502 0.635986 20.3143V8.92299C0.635986 3.98708 3.81196 0.669922 8.53958 0.669922H20.6298ZM22.1681 15.3859C20.6728 14.4531 19.5184 15.763 19.2071 16.1819C18.9069 16.5864 18.6488 17.0327 18.3767 17.4789C17.7118 18.5801 16.9502 19.8498 15.6317 20.5882C13.7157 21.6491 12.2611 20.6717 11.2148 19.9606C10.822 19.6957 10.4405 19.4453 10.0604 19.2783C9.1234 18.8738 8.28041 19.3344 7.02925 20.9236C6.37281 21.7542 5.72197 22.5776 5.06273 23.3981C4.66858 23.889 4.76256 24.6462 5.29417 24.9744C6.14277 25.4969 7.17793 25.7776 8.34774 25.7776H20.1034C20.7668 25.7776 21.4317 25.6869 22.0657 25.4796C23.4936 25.0132 24.6269 23.9451 25.2188 22.5344C25.7182 21.3483 25.9608 19.9088 25.4937 18.7111C25.338 18.3138 25.1052 17.9439 24.7784 17.6186C23.9214 16.7678 23.1205 15.9732 22.1681 15.3859ZM9.70106 6.24941C7.77803 6.24941 6.21547 7.81408 6.21547 9.73659C6.21547 11.6591 7.77803 13.2238 9.70106 13.2238C11.6227 13.2238 13.1866 11.6591 13.1866 9.73659C13.1866 7.81408 11.6227 6.24941 9.70106 6.24941Z" fill="white"/>
</g>
</g>
</svg>
