<svg width="27" height="29" viewBox="0 0 27 29" fill="none" xmlns="http://www.w3.org/2000/svg">
<g id="Iconly/Bold/Setting">
<g id="Setting">
<path id="Vector" d="M14.585 0.439301C15.6398 0.439301 16.5949 1.02515 17.1224 1.88997C17.379 2.30843 17.55 2.82453 17.5072 3.36853C17.4787 3.78699 17.607 4.20545 17.8351 4.59602C18.5621 5.78166 20.1729 6.22802 21.4274 5.55848C22.8386 4.74945 24.6205 5.23766 25.433 6.61858L26.3881 8.26453C27.2149 9.64545 26.7587 11.4169 25.3332 12.212C24.1216 12.9234 23.6939 14.4996 24.4209 15.6992C24.649 16.0758 24.9056 16.3966 25.3047 16.5919C25.8037 16.8569 26.1885 17.2754 26.4594 17.6939C26.9868 18.5587 26.9441 19.6188 26.4309 20.5534L25.433 22.2272C24.9056 23.1199 23.922 23.6779 22.9099 23.6779C22.411 23.6779 21.855 23.5384 21.3989 23.2594C21.0282 23.0223 20.6006 22.9386 20.1444 22.9386C18.7332 22.9386 17.55 24.0963 17.5072 25.4772C17.5072 27.0814 16.1958 28.3367 14.5565 28.3367H12.6178C10.9642 28.3367 9.65274 27.0814 9.65274 25.4772C9.62423 24.0963 8.44107 22.9386 7.02982 22.9386C6.55941 22.9386 6.13176 23.0223 5.77538 23.2594C5.31922 23.5384 4.74903 23.6779 4.26436 23.6779C3.238 23.6779 2.2544 23.1199 1.72697 22.2272L0.743372 20.5534C0.215937 19.6467 0.187427 18.5587 0.714862 17.6939C0.942942 17.2754 1.37059 16.8569 1.85526 16.5919C2.2544 16.3966 2.51099 16.0758 2.75333 15.6992C3.46608 14.4996 3.03843 12.9234 1.82675 12.212C0.415507 11.4169 -0.0406528 9.64545 0.771882 8.26453L1.72697 6.61858C2.55376 5.23766 4.32138 4.74945 5.74687 5.55848C6.98706 6.22802 8.59787 5.78166 9.32488 4.59602C9.55296 4.20545 9.68125 3.78699 9.65274 3.36853C9.62423 2.82453 9.78104 2.30843 10.0519 1.88997C10.5793 1.02515 11.5344 0.467198 12.575 0.439301H14.585ZM13.6014 10.4545C11.3633 10.4545 9.55296 12.212 9.55296 14.402C9.55296 16.5919 11.3633 18.3355 13.6014 18.3355C15.8394 18.3355 17.607 16.5919 17.607 14.402C17.607 12.212 15.8394 10.4545 13.6014 10.4545Z" fill="white"/>
</g>
</g>
</svg>
