<svg width="93" height="81" viewBox="0 0 93 81" fill="none" xmlns="http://www.w3.org/2000/svg">
<g id="Upload icon">
<path id="Vector" d="M48.2963 18.3575C48.1184 18.9546 48.458 19.5823 49.0543 19.7604L49.1471 19.7881L49.1502 19.7845C49.7188 19.902 50.2889 19.5648 50.4558 19.0005C52.0261 13.717 56.9728 10.0265 62.4842 10.0265C63.1065 10.0265 63.6109 9.52115 63.6109 8.89848C63.6109 8.27578 63.1065 7.77041 62.4842 7.77041C55.7605 7.77041 50.1104 12.2531 48.2963 18.3575ZM48.2963 18.3575L48.44 18.4004M48.2963 18.3575C48.2963 18.3576 48.2962 18.3576 48.2962 18.3576L48.44 18.4004M48.44 18.4004C48.2858 18.918 48.5803 19.4623 49.0972 19.6167L48.44 18.4004Z" fill="#B7190F" stroke="#F9FFF9" stroke-width="0.3"/>
<path id="Vector_2" d="M76.1578 56.8237H70.2974C69.7581 56.8237 69.3207 56.3857 69.3207 55.8457C69.3207 55.3057 69.7581 54.8676 70.2974 54.8676H76.1578C84.236 54.8676 90.8088 48.2859 90.8088 40.1968C90.8088 32.1076 84.236 25.526 76.1578 25.526H76.0168C75.7336 25.526 75.4643 25.403 75.2787 25.1885C75.0931 24.9741 75.0094 24.6897 75.0499 24.4089C75.1371 23.7997 75.181 23.1877 75.181 22.5918C75.181 15.5813 69.4845 9.87701 62.4834 9.87701C59.7597 9.87701 57.1622 10.7293 54.9715 12.3424C54.4901 12.6966 53.8064 12.5394 53.528 12.0091C47.3237 0.178917 31.1186 -1.40976 22.7171 8.88151C19.1779 13.2171 17.7873 18.8569 18.9016 24.3537C19.0244 24.9608 18.5604 25.5267 17.9444 25.5267H17.553C9.47473 25.5267 2.90193 32.1084 2.90193 40.1975C2.90193 48.2867 9.47473 54.8684 17.553 54.8684H23.4133C23.9526 54.8684 24.3901 55.3064 24.3901 55.8464C24.3901 56.3864 23.9526 56.8245 23.4133 56.8245H17.553C8.39739 56.8245 0.948364 49.3654 0.948364 40.1975C0.948364 31.2867 7.985 23.9904 16.7862 23.588C15.9595 17.8851 17.5404 12.1328 21.2045 7.64358C30.1995 -3.37559 47.4378 -2.14049 54.7249 10.1467C57.0496 8.68728 59.7097 7.92168 62.4831 7.92168C70.9653 7.92168 77.6867 15.151 77.0986 23.5971C85.8187 24.0868 92.7619 31.3446 92.7619 40.1968C92.7619 49.3654 85.3129 56.8238 76.1573 56.8238L76.1578 56.8237Z" fill="#B7190F"/>
<path id="Vector_3" d="M22.1557 55.2935C22.1557 68.8589 33.1769 79.8952 46.7244 79.8952C60.272 79.8952 71.2931 68.8587 71.2931 55.2935C71.2931 41.7281 60.272 30.6918 46.7244 30.6918C33.1768 30.6918 22.1557 41.7282 22.1557 55.2935ZM24.4096 55.2935C24.4096 42.9725 34.4203 32.9484 46.7244 32.9484C59.0282 32.9484 69.0392 42.9723 69.0392 55.2935C69.0392 67.6144 59.0282 77.6386 46.7244 77.6386C34.4205 77.6386 24.4096 67.6146 24.4096 55.2935Z" fill="#B7190F" stroke="#F9FFF9" stroke-width="0.3"/>
<g id="arrow">
<path id="Vector_4" d="M46.3057 65.1367C46.3057 65.6147 46.6929 66.0027 47.1708 66.0027C47.6486 66.0027 48.0359 65.6153 48.0359 65.1367V46.5193C48.0359 46.0413 47.6486 45.6532 47.1708 45.6532C46.6929 45.6532 46.3057 46.0413 46.3057 46.5193V65.1367Z" fill="#B7190F" stroke="#B7190F" stroke-width="0.3"/>
<path id="Vector_5" d="M47.1707 47.7458L52.2795 52.8615C52.4482 53.0304 52.6702 53.1152 52.8913 53.1152L47.1707 47.7458ZM47.1707 47.7458L42.062 52.8614C41.7244 53.2001 41.1762 53.1999 40.8383 52.8615C40.5004 52.5232 40.5004 51.9752 40.8383 51.6368L46.5588 45.9086L47.1707 47.7458ZM47.7825 45.9085C47.4446 45.5702 46.8964 45.57 46.5589 45.9085L52.8913 53.1152C53.1121 53.1152 53.3342 53.0312 53.5031 52.8615C53.841 52.5232 53.841 51.9752 53.5031 51.6368L47.7825 45.9085Z" fill="#B7190F" stroke="#B7190F" stroke-width="0.3"/>
</g>
</g>
</svg>
