<svg width="22" height="22" viewBox="0 0 22 22" fill="none" xmlns="http://www.w3.org/2000/svg">
<path id="Vector" d="M10.9004 21.3662C8.06867 21.3662 5.35261 20.2412 3.3504 18.2389C1.34807 16.2364 0.223083 13.5206 0.223083 10.6889C0.223083 7.85721 1.34807 5.14115 3.3504 3.13895C5.3529 1.13662 8.06867 0.0116291 10.9004 0.0116291C13.7321 0.0116291 16.4481 1.13662 18.4503 3.13895C20.4527 5.14144 21.5777 7.85721 21.5777 10.6889C21.5743 13.5197 20.4483 16.2338 18.4466 18.2351C16.4449 20.2368 13.7308 21.3628 10.9004 21.3662ZM15.0179 7.94274V7.94258C15.2051 7.76172 15.3119 7.51327 15.3142 7.25294C15.3164 6.99261 15.2141 6.74221 15.03 6.55809C14.8458 6.37397 14.5955 6.27161 14.3351 6.27388C14.0748 6.27616 13.8264 6.38292 13.6455 6.57012L10.9004 9.31621L8.15528 6.57012C7.90877 6.33205 7.55499 6.24155 7.22432 6.33222C6.89379 6.42289 6.63559 6.6811 6.54491 7.01163C6.45423 7.34231 6.54474 7.69607 6.78281 7.94259L9.5279 10.6887L6.78281 13.4348C6.59561 13.6156 6.48885 13.8641 6.48657 14.1244C6.4843 14.3848 6.58667 14.6351 6.77078 14.8193C6.95489 15.0034 7.20529 15.1058 7.46563 15.1035C7.72595 15.1012 7.97439 14.9944 8.15527 14.8072L10.9004 12.0611L13.6455 14.8072C13.8263 14.9944 14.0748 15.1012 14.3351 15.1035C14.5954 15.1058 14.8458 15.0034 15.03 14.8193C15.2141 14.6352 15.3164 14.3848 15.3142 14.1244C15.3119 13.8641 15.2051 13.6157 15.0179 13.4348L12.2728 10.6887L15.0179 7.94274Z" fill="#E6E6E6"/>
</svg>
